/vscmnt/brussel_pixiu_data/_data_brussel/112/vsc11236/PredSimResults/SUBJ11opt3D/expIG/worker_07.mot
version=1
nRows=11
nColumns=50
inDegrees=yes
endheader
                time	         pelvis_tilt	         pelvis_list	     pelvis_rotation	           pelvis_tx	           pelvis_ty	           pelvis_tz	       hip_flexion_r	     hip_adduction_r	      hip_rotation_r	        knee_angle_r	       ankle_angle_r	         mtp_angle_r	       hip_flexion_l	     hip_adduction_l	      hip_rotation_l	        knee_angle_l	       ankle_angle_l	         mtp_angle_l	    lumbar_extension	      lumbar_bending	     lumbar_rotation	 ercspn_r/activation	 intobl_r/activation	 extobl_r/activation	    abd_r/activation	    add_r/activation	hamstrings_r/activation	bifemsh_r/activation	glut_max_r/activation	iliopsoas_r/activation	rect_fem_r/activation	  vasti_r/activation	gastroc_r/activation	 soleus_r/activation	tib_ant_r/activation	 ercspn_l/activation	 intobl_l/activation	 extobl_l/activation	    abd_l/activation	    add_l/activation	hamstrings_l/activation	bifemsh_l/activation	glut_max_l/activation	iliopsoas_l/activation	rect_fem_l/activation	  vasti_l/activation	gastroc_l/activation	 soleus_l/activation	tib_ant_l/activation	
          1.27784145	         -3.83071562	         -1.44898124	          5.92670715	          1.53340974	          0.93745974	         -0.00531989	         32.48218071	         -1.72426158	         -5.20773688	         -9.46032980	          2.24757462	          0.24677142	        -14.37117408	         -3.42823607	         -1.75146561	        -11.61644507	         11.49215535	         31.15931487	        -14.10515524	         -1.13417440	         -3.13941666	          0.03816855	          0.23967837	          0.05378224	          0.00999999	          0.19976819	          0.04747639	          0.16503708	          0.05526397	          0.10109648	          0.03835215	          0.01171901	          0.00999999	          0.00999999	          0.44537501	          0.01000000	          0.00999999	          0.00999999	          0.03326780	          0.01000000	          0.01592312	          0.24521923	          0.02034897	          0.11369589	          0.00999999	          0.00999999	          0.15844843	          0.30765815	          0.01413870	
          1.29061987	         -3.91620864	         -1.51817315	          6.07227386	          1.55269647	          0.93533599	         -0.00444551	         32.31820777	         -1.57014189	         -5.37444491	        -10.79160025	          1.62863627	          0.24666559	        -15.04790705	         -3.69836916	         -2.03478595	        -12.24303349	         10.48366954	         33.05616151	        -13.65288284	         -0.65007684	         -3.34775671	          0.03146692	          0.19759571	          0.04433917	          0.00999999	          0.21402951	          0.04452650	          0.13605991	          0.14791509	          0.08334599	          0.03161829	          0.00999999	          0.01389575	          0.01280847	          0.47687553	          0.04124167	          0.00999999	          0.00999999	          0.02742665	          0.06920219	          0.01761990	          0.20216370	          0.01677610	          0.10570945	          0.00999999	          0.00999999	          0.13062810	          0.28235441	          0.01165623	
          1.30339828	         -3.97939429	         -1.58442500	          6.18911900	          1.57233663	          0.93347105	         -0.00352217	         32.08025782	         -1.45586469	         -5.50322915	        -12.29579487	          1.13529174	          0.21701991	        -15.57895306	         -3.97177606	         -2.34413088	        -13.18123942	          9.34608630	         34.98684536	        -13.17376760	         -0.16420813	         -3.54691511	          0.03291750	          0.16290191	          0.03655411	          0.09465089	          0.25275777	          0.04548243	          0.11217055	          0.14551378	          0.06871212	          0.02606676	          0.00999999	          0.01145594	          0.01055956	          0.55621956	          0.03400048	          0.00999999	          0.00999999	          0.02261109	          0.05705169	          0.01452620	          0.16666785	          0.01383056	          0.17336784	          0.00999999	          0.00999999	          0.10769245	          0.25409579	          0.00999999	
          1.31617670	         -4.02319643	         -1.62945145	          6.26989883	          1.59196711	          0.93209169	         -0.00252391	         31.88489089	         -1.36954936	         -5.67757050	        -13.86325526	          0.45749314	          0.18376463	        -15.82362548	         -4.23279533	         -2.66205220	        -14.62751265	          8.06864509	         36.93018360	        -12.71326538	          0.29973861	         -3.72933866	          0.04402325	          0.13429963	          0.03013595	          0.12950644	          0.31939246	          0.04190158	          0.09247567	          0.16200333	          0.05664766	          0.02148997	          0.03016075	          0.00999999	          0.00999999	          0.61588797	          0.06786012	          0.00999999	          0.00999999	          0.01864104	          0.08865943	          0.01221460	          0.13740436	          0.01140219	          0.17742292	          0.00999999	          0.00999999	          0.08878384	          0.21596708	          0.00999999	
          1.32895511	         -4.04700638	         -1.65924343	          6.31732498	          1.61140654	          0.93130190	         -0.00146111	         31.77982920	         -1.30265286	         -5.87201342	        -15.63302709	         -0.01967576	          0.12702806	        -15.68946911	         -4.49266504	         -2.97768158	        -16.72042899	          6.67158602	         38.78032029	        -12.28905076	          0.74841810	         -3.89121479	          0.04575024	          0.11071934	          0.02484468	          0.16097380	          0.35753650	          0.04590230	          0.07623882	          0.16843796	          0.04670148	          0.01771676	          0.09509215	          0.00999999	          0.00999999	          0.64143479	          0.10164790	          0.00999999	          0.00999999	          0.01536805	          0.15675452	          0.01006997	          0.11327894	          0.00999999	          0.17658838	          0.00999999	          0.00999999	          0.07319520	          0.17804764	          0.00999999	
          1.34173353	         -4.05301260	         -1.67664227	          6.33057944	          1.63051931	          0.93121936	         -0.00035958	         31.67796810	         -1.23700004	         -6.04106955	        -17.47435368	         -0.10650252	          0.06797139	        -15.10405914	         -4.75607476	         -3.29955445	        -19.55233389	          5.14792632	         40.36320139	        -11.91040074	          1.18562175	         -4.02718332	          0.03771742	          0.09127927	          0.02048246	          0.17635718	          0.36843777	          0.04365491	          0.06285283	          0.18435360	          0.03850165	          0.01460606	          0.13952580	          0.00999999	          0.00999999	          0.62162930	          0.13003227	          0.00999999	          0.00999999	          0.01266973	          0.20460238	          0.01532715	          0.09338950	          0.00999999	          0.14558304	          0.00999999	          0.00999999	          0.06034360	          0.14678608	          0.00999999	
          1.35451194	         -4.04380333	         -1.68148502	          6.30718842	          1.64917381	          0.93192664	          0.00074727	         31.50835462	         -1.15849968	         -6.15072100	        -19.25602712	          0.23927863	          0.02553684	        -14.02602948	         -5.02881266	         -3.65987250	        -23.17645240	          3.62540284	         41.16074386	        -11.58712207	          1.61329280	         -4.13149360	          0.03109501	          0.07525248	          0.01688616	          0.18462722	          0.37458036	          0.04716481	          0.05181715	          0.17002645	          0.03174154	          0.01204153	          0.16856267	          0.00999999	          0.00999999	          0.55099754	          0.13602574	          0.00999999	          0.00999999	          0.01044518	          0.23488712	          0.01705512	          0.07699220	          0.00999999	          0.12002161	          0.00999999	          0.00999999	          0.04974849	          0.12101342	          0.00999999	
          1.36729035	         -4.02200615	         -1.66527527	          6.24482048	          1.66731784	          0.93342605	          0.00182423	         31.19783934	         -1.06232251	         -6.17252554	        -20.82661911	          0.94516707	          0.04596243	        -12.45694014	         -5.31433155	         -4.05500220	        -27.55785655	          2.06730281	         40.94328248	        -11.32111537	          2.02494200	         -4.20003813	          0.02563536	          0.06203967	          0.01392129	          0.19053437	          0.34623417	          0.05033965	          0.04271911	          0.14017326	          0.02616837	          0.00999999	          0.22765191	          0.00999999	          0.00999999	          0.45689302	          0.12762308	          0.00999999	          0.01000000	          0.00999999	          0.27202276	          0.02736148	          0.07112117	          0.00999999	          0.09894825	          0.00999999	          0.00999999	          0.04101366	          0.09976591	          0.00999999	
          1.38006877	         -3.99169414	         -1.61117492	          6.13536929	          1.68491770	          0.93572115	          0.00282704	         30.64348804	         -0.95488367	         -6.10375571	        -21.96944527	          1.85067873	          0.20484360	        -10.44305735	         -5.59923537	         -4.47461366	        -32.51326267	          0.23033442	         39.82543622	        -11.11441748	          2.40690144	         -4.22524285	          0.02113431	          0.05114676	          0.01147699	          0.17238302	          0.29976187	          0.05618516	          0.03521850	          0.11556167	          0.02157373	          0.00999999	          0.26728407	          0.00999999	          0.00999999	          0.37667186	          0.10575755	          0.01320370	          0.03552190	          0.00999999	          0.30590770	          0.02255736	          0.07154168	          0.00999999	          0.08157494	          0.00999999	          0.00999999	          0.03381250	          0.08224904	          0.00999999	
          1.39284718	         -3.95708415	         -1.50162132	          5.97581868	          1.70191831	          0.93876071	          0.00373997	         29.81731444	         -0.85905342	         -5.96602304	        -22.58889162	          2.74285013	          0.47734235	         -8.05962207	         -5.86666554	         -4.88122643	        -37.81319672	         -1.93174062	         37.69426066	        -10.97577465	          2.73877371	         -4.20982191	          0.01742355	          0.04216643	          0.00999999	          0.14233861	          0.24712976	          0.05139668	          0.02903484	          0.09527139	          0.01778582	          0.00999999	          0.28732480	          0.00999999	          0.00999999	          0.31490997	          0.12974053	          0.05564544	          0.09026033	          0.00999999	          0.25219651	          0.01859674	          0.06366500	          0.00999999	          0.06725204	          0.00999999	          0.00999999	          0.02787571	          0.06780778	          0.04635231	
          1.40562560	         -3.91934493	         -1.33766829	          5.76881474	          1.71829105	          0.94236480	          0.00460844	         28.77163359	         -0.78407535	         -5.76978108	        -22.75026426	          3.52327785	          0.81810420	         -5.42199785	         -6.10362118	         -5.20455499	        -43.24627981	         -4.01307806	         34.03088615	        -10.91251720	          3.00556935	         -4.15968575	          0.01436433	          0.03476286	          0.00999999	          0.11734683	          0.20411460	          0.05088297	          0.02393691	          0.07854366	          0.01466299	          0.00999999	          0.28047955	          0.00999999	          0.00999999	          0.27216488	          0.14595674	          0.08589778	          0.13005209	          0.00999999	          0.20791591	          0.01533153	          0.05248672	          0.00999999	          0.05544394	          0.00999999	          0.00999999	          0.02298130	          0.05590211	          0.20282286	
